<svg width="115" height="97" viewBox="0 0 115 97" fill="none" xmlns="http://www.w3.org/2000/svg">
<rect width="115" height="97" fill="black"/>
<path d="M46.1699 57.8496C44.5684 57.8496 43.2012 57.7324 42.0684 57.498C40.9355 57.2637 39.8809 56.8828 38.9043 56.3555C37.9473 55.8281 36.9219 55.1445 35.8281 54.3047L34.8027 57H25.3398V42.7324H34.7441C35.3496 44.373 36.2773 45.5352 37.5273 46.2188C38.7969 46.8828 40.3496 47.2148 42.1855 47.2148C43.3184 47.2148 44.2852 46.9902 45.0859 46.541C45.8867 46.0723 46.2871 45.457 46.2871 44.6953C46.2871 43.7383 45.877 43.0254 45.0566 42.5566C44.2363 42.0684 43.084 41.6191 41.5996 41.209C39.7051 40.7012 37.9863 40.1641 36.4434 39.5977C34.9199 39.0312 33.5527 38.4453 32.3418 37.8398C29.9199 36.6289 27.9668 34.9102 26.4824 32.6836C24.998 30.457 24.2559 27.498 24.2559 23.8066C24.2559 20.9746 24.8711 18.4746 26.1016 16.3066C27.3125 14.1582 29.0508 12.4883 31.3164 11.2969C33.6016 10.0859 36.2871 9.48047 39.373 9.48047C43.1426 9.48047 46.1211 10.6816 48.3086 13.084L49.8027 10.3301H58.2109V24.3047H49.2168C48.377 22.5469 47.4492 21.3262 46.4336 20.6426C45.418 19.959 44.0215 19.6172 42.2441 19.6172C40.8965 19.6172 39.8516 19.8613 39.1094 20.3496C38.3672 20.8184 37.9961 21.4727 37.9961 22.3125C37.9961 23.25 38.5332 23.9629 39.6074 24.4512C40.6621 24.959 42.166 25.4277 44.1191 25.8574C47.5371 26.6387 50.4863 27.625 52.9668 28.8164C55.3887 30.0078 57.3223 31.6973 58.7676 33.8848C60.2324 36.0527 60.9648 38.8555 60.9648 42.293C60.9648 45.2031 60.3594 47.8398 59.1484 50.2031C57.918 52.5664 56.1699 54.4316 53.9043 55.7988C51.6582 57.166 49.0801 57.8496 46.1699 57.8496Z" fill="#219653"/>
<path d="M59.5039 73.6875V84H38.9375V73.6875H43.5664L51.5938 47.7012H45.4707V37.3887H74.5039L84.9043 73.6875H89.5039V84H63.2832V73.6875H67.0918L65.832 68.707H55.2559L53.9375 73.6875H59.5039ZM64.4258 61.6172L61.0273 47.3496L56.75 61.6172H64.4258Z" fill="#219653"/>
<path fill-rule="evenodd" clip-rule="evenodd" d="M60.355 37.3887C60.7616 38.8473 60.9648 40.482 60.9648 42.293C60.9648 45.2031 60.3594 47.8398 59.1484 50.2031C57.918 52.5664 56.1699 54.4316 53.9043 55.7988C52.2791 56.7881 50.4801 57.4194 48.5072 57.6929L51.5938 47.7012H45.4707V46.2806C46.015 45.8517 46.2871 45.3233 46.2871 44.6953C46.2871 43.9158 46.015 43.2982 45.4707 42.8426V37.3887H60.355Z" fill="black"/>
</svg>
